<svg xmlns="http://www.w3.org/2000/svg" width="17" height="17" fill="none" viewBox="0 0 17 17">
    <rect width="16" height="16" x=".25" y=".998" fill="#EFB140" rx="8"/>
    <path fill="#fff" d="M8.19 3.998c-2.66 0-4.83 2.1-4.94 4.72-.01.19.13.2.13.2h.84c.16 0 .19-.1.19-.18.1-1.99 1.76-3.58 3.78-3.58 1.07 0 2.05.45 2.73 1.18l-.58.57c-.11.12-.11.27.05.31l2.47.5c.21.05.46-.11.37-.44l-.58-2.27c-.02-.09-.16-.22-.29-.13l-.65.6c-.89-.91-2.14-1.48-3.52-1.48zm4.09 5.08c-.16 0-.19.1-.19.18-.1 1.99-1.76 3.58-3.77 3.58-1.08 0-2.05-.45-2.74-1.18l.59-.57c.1-.12.1-.27-.05-.31l-2.48-.5c-.21-.05-.46.11-.37.44l.58 2.27c.02.089.16.22.3.129l.64-.6c.89.91 2.14 1.48 3.53 1.48 2.65 0 4.82-2.1 4.93-4.73.01-.18-.13-.19-.13-.19h-.84z"/>
</svg>
